<?xml version="1.0" standalone="no"?><!DOCTYPE svg PUBLIC "-//W3C//DTD SVG 1.1//EN" "http://www.w3.org/Graphics/SVG/1.1/DTD/svg11.dtd"><svg width="200" height="200" viewBox="0 0 200 200" version="1.1" xmlns="http://www.w3.org/2000/svg" xmlns:xlink="http://www.w3.org/1999/xlink"><defs><style type="text/css"><![CDATA[

]]></style></defs><g class="transform-group"><g transform="scale(0.1953125, 0.1953125)"><path d="M875.263467 495.52477c0 11.307533-9.15859 20.466124-20.466124 20.466124l-307.196521 0 0 307.206754c0 11.2973-9.15859 20.466124-20.466124 20.466124s-20.466124-9.168824-20.466124-20.466124l0-307.206754-307.196521 0c-11.307533 0-20.466124-9.15859-20.466124-20.466124 0-11.2973 9.15859-20.466124 20.466124-20.466124l307.196521 0 0-307.196521c0-11.307533 9.15859-20.466124 20.466124-20.466124s20.466124 9.15859 20.466124 20.466124l0 307.196521 307.196521 0C866.104877 475.058646 875.263467 484.22747 875.263467 495.52477z" fill="#fff"></path></g></g></svg>